# xmcd
#
# Track frame offsets:
#	150
#	19495
#	37823
#	53253
#	69138
#	82380
#	101357
#	118447
#	137542
#	158700
#	182335
#	197712
#	209492
#	232249
#	252307
#	268570
#	287443
#	302273
#	316195
#	326242
#
# Disc length: 4651 seconds
#
# Revision: 0
# Processed by: cddbd v1.5.2PL0 Copyright (c) Steve Scherf et al.
# Submitted via: dBpowerAMP V4.0
#
DISCID=14122914
DTITLE=Joe Ely - Best of Joe Ely
DYEAR=1900
DGENRE=Country
TTITLE0=Joe
TTITLE1=Ely
TTITLE2=Juanita
TTITLE3=Rita
TTITLE4=Sandy
TTITLE5=Trudi
TTITLE6=Tim
TTITLE7=Mom
TTITLE8=Dad
TTITLE9=Tayler
TTITLE10=Dylan
TTITLE11=Whitney
TTITLE12=Cody
TTITLE13=Ramey
TTITLE14=Ryan
TTITLE15=Natalie
TTITLE16=Tanya
TTITLE17=Chrissy
TTITLE18=Megan
TTITLE19=Patrick
EXTD=Joe Ely
EXTT0=
EXTT1=
EXTT2=
EXTT3=
EXTT4=
EXTT5=
EXTT6=
EXTT7=
EXTT8=
EXTT9=
EXTT10=
EXTT11=
EXTT12=
EXTT13=
EXTT14=
EXTT15=
EXTT16=
EXTT17=
EXTT18=
EXTT19=
PLAYORDER=
